<svg xmlns="http://www.w3.org/2000/svg" width="800" height="800">
	<path fill="#ff2a2a" d="M55.798 256.476c0-27.601 23.903-69.002 47.806-82.802L352.194 30.15c23.904-13.8 71.71-13.8 95.612 0l248.591 143.524c23.904 13.8 47.806 55.201 47.806 82.802v287.048c0 27.6-23.902 69.001-47.806 82.802L447.806 769.85c-23.902 13.8-71.708 13.8-95.611 0L103.604 626.326c-23.903-13.8-47.806-55.202-47.806-82.802Z"/>
	<path fill="none" stroke="#fff" stroke-linecap="round" stroke-width="40" d="M525 400H275h0m0-162.5v325h0m250-325v325h0"/>
</svg>
